<mxfile host="app.diagrams.net" modified="2021-10-29T11:17:25.015Z" agent="5.0 (Macintosh; Intel Mac OS X 10_15_7) AppleWebKit/537.36 (KHTML, like Gecko) Chrome/95.0.4638.54 Safari/537.36" etag="GxizdiEDjV9JoYYIFOQ2" version="15.6.2" type="github">
  <diagram id="mm3tGqj0rnyyRIfulotg" name="Page-1">
    <mxGraphModel dx="730" dy="1631" grid="1" gridSize="10" guides="1" tooltips="1" connect="1" arrows="1" fold="1" page="1" pageScale="1" pageWidth="827" pageHeight="1169" math="0" shadow="0">
      <root>
        <mxCell id="0" />
        <mxCell id="1" parent="0" />
        <mxCell id="CLl4tcSQtMW0sFHd8FeN-10" style="edgeStyle=orthogonalEdgeStyle;rounded=0;orthogonalLoop=1;jettySize=auto;html=1;" edge="1" parent="1" source="CLl4tcSQtMW0sFHd8FeN-2" target="CLl4tcSQtMW0sFHd8FeN-3">
          <mxGeometry relative="1" as="geometry" />
        </mxCell>
        <mxCell id="CLl4tcSQtMW0sFHd8FeN-2" value="Job-Producer" style="sketch=0;outlineConnect=0;fontColor=#232F3E;gradientColor=none;strokeColor=#ffffff;fillColor=#232F3E;dashed=0;verticalLabelPosition=middle;verticalAlign=bottom;align=center;html=1;whiteSpace=wrap;fontSize=10;fontStyle=1;spacing=3;shape=mxgraph.aws4.productIcon;prIcon=mxgraph.aws4.lambda;" vertex="1" parent="1">
          <mxGeometry x="210" y="-360" width="80" height="100" as="geometry" />
        </mxCell>
        <mxCell id="CLl4tcSQtMW0sFHd8FeN-13" style="edgeStyle=orthogonalEdgeStyle;rounded=0;orthogonalLoop=1;jettySize=auto;html=1;" edge="1" parent="1" source="CLl4tcSQtMW0sFHd8FeN-3" target="CLl4tcSQtMW0sFHd8FeN-12">
          <mxGeometry relative="1" as="geometry" />
        </mxCell>
        <mxCell id="CLl4tcSQtMW0sFHd8FeN-3" value="SQS&lt;br&gt;Job-queue&amp;nbsp;" style="sketch=0;outlineConnect=0;fontColor=#232F3E;gradientColor=none;strokeColor=#ffffff;fillColor=#232F3E;dashed=0;verticalLabelPosition=middle;verticalAlign=bottom;align=center;html=1;whiteSpace=wrap;fontSize=10;fontStyle=1;spacing=3;shape=mxgraph.aws4.productIcon;prIcon=mxgraph.aws4.sqs;" vertex="1" parent="1">
          <mxGeometry x="380" y="-365" width="80" height="110" as="geometry" />
        </mxCell>
        <mxCell id="CLl4tcSQtMW0sFHd8FeN-4" value="Amazon RDS" style="sketch=0;outlineConnect=0;fontColor=#232F3E;gradientColor=none;strokeColor=#ffffff;fillColor=#232F3E;dashed=0;verticalLabelPosition=middle;verticalAlign=bottom;align=center;html=1;whiteSpace=wrap;fontSize=10;fontStyle=1;spacing=3;shape=mxgraph.aws4.productIcon;prIcon=mxgraph.aws4.rds;" vertex="1" parent="1">
          <mxGeometry x="30" y="-360" width="80" height="100" as="geometry" />
        </mxCell>
        <mxCell id="CLl4tcSQtMW0sFHd8FeN-6" style="edgeStyle=orthogonalEdgeStyle;rounded=0;orthogonalLoop=1;jettySize=auto;html=1;exitX=0.44;exitY=0.54;exitDx=0;exitDy=0;exitPerimeter=0;" edge="1" parent="1" source="CLl4tcSQtMW0sFHd8FeN-5" target="CLl4tcSQtMW0sFHd8FeN-2">
          <mxGeometry relative="1" as="geometry">
            <mxPoint x="240" y="-460" as="targetPoint" />
          </mxGeometry>
        </mxCell>
        <mxCell id="CLl4tcSQtMW0sFHd8FeN-5" value="" style="outlineConnect=0;dashed=0;verticalLabelPosition=bottom;verticalAlign=top;align=center;html=1;shape=mxgraph.aws3.event_time_based;fillColor=#759C3E;gradientColor=none;" vertex="1" parent="1">
          <mxGeometry x="117" y="-530" width="63" height="82.5" as="geometry" />
        </mxCell>
        <mxCell id="CLl4tcSQtMW0sFHd8FeN-9" value="" style="endArrow=classic;startArrow=classic;html=1;rounded=0;" edge="1" parent="1" source="CLl4tcSQtMW0sFHd8FeN-4" target="CLl4tcSQtMW0sFHd8FeN-2">
          <mxGeometry width="50" height="50" relative="1" as="geometry">
            <mxPoint x="120" y="-190" as="sourcePoint" />
            <mxPoint x="170" y="-240" as="targetPoint" />
          </mxGeometry>
        </mxCell>
        <mxCell id="CLl4tcSQtMW0sFHd8FeN-17" style="edgeStyle=orthogonalEdgeStyle;rounded=0;orthogonalLoop=1;jettySize=auto;html=1;fontSize=12;" edge="1" parent="1" source="CLl4tcSQtMW0sFHd8FeN-12" target="CLl4tcSQtMW0sFHd8FeN-14">
          <mxGeometry relative="1" as="geometry">
            <mxPoint x="700" y="-160" as="targetPoint" />
          </mxGeometry>
        </mxCell>
        <mxCell id="CLl4tcSQtMW0sFHd8FeN-12" value="Job-Consumer" style="sketch=0;outlineConnect=0;fontColor=#232F3E;gradientColor=none;strokeColor=#ffffff;fillColor=#232F3E;dashed=0;verticalLabelPosition=middle;verticalAlign=bottom;align=center;html=1;whiteSpace=wrap;fontSize=10;fontStyle=1;spacing=3;shape=mxgraph.aws4.productIcon;prIcon=mxgraph.aws4.lambda;" vertex="1" parent="1">
          <mxGeometry x="540" y="-360" width="80" height="100" as="geometry" />
        </mxCell>
        <mxCell id="CLl4tcSQtMW0sFHd8FeN-19" style="edgeStyle=orthogonalEdgeStyle;rounded=0;orthogonalLoop=1;jettySize=auto;html=1;fontSize=12;" edge="1" parent="1" source="CLl4tcSQtMW0sFHd8FeN-14" target="CLl4tcSQtMW0sFHd8FeN-18">
          <mxGeometry relative="1" as="geometry" />
        </mxCell>
        <mxCell id="CLl4tcSQtMW0sFHd8FeN-14" value="Data-lake&lt;br&gt;" style="sketch=0;outlineConnect=0;fontColor=#232F3E;gradientColor=none;strokeColor=#ffffff;fillColor=#232F3E;dashed=0;verticalLabelPosition=middle;verticalAlign=bottom;align=center;html=1;whiteSpace=wrap;fontSize=10;fontStyle=1;spacing=3;shape=mxgraph.aws4.productIcon;prIcon=mxgraph.aws4.s3;" vertex="1" parent="1">
          <mxGeometry x="540" y="-190" width="80" height="100" as="geometry" />
        </mxCell>
        <mxCell id="CLl4tcSQtMW0sFHd8FeN-21" style="edgeStyle=orthogonalEdgeStyle;rounded=0;orthogonalLoop=1;jettySize=auto;html=1;fontSize=12;" edge="1" parent="1" source="CLl4tcSQtMW0sFHd8FeN-18" target="CLl4tcSQtMW0sFHd8FeN-20">
          <mxGeometry relative="1" as="geometry" />
        </mxCell>
        <mxCell id="CLl4tcSQtMW0sFHd8FeN-18" value="Amazon SNS&lt;br&gt;Internal-notification" style="sketch=0;outlineConnect=0;fontColor=#232F3E;gradientColor=none;strokeColor=#ffffff;fillColor=#232F3E;dashed=0;verticalLabelPosition=middle;verticalAlign=bottom;align=center;html=1;whiteSpace=wrap;fontSize=10;fontStyle=1;spacing=3;shape=mxgraph.aws4.productIcon;prIcon=mxgraph.aws4.sns;" vertex="1" parent="1">
          <mxGeometry x="390" y="-190" width="80" height="120" as="geometry" />
        </mxCell>
        <mxCell id="CLl4tcSQtMW0sFHd8FeN-23" style="edgeStyle=orthogonalEdgeStyle;rounded=0;orthogonalLoop=1;jettySize=auto;html=1;fontSize=12;" edge="1" parent="1" source="CLl4tcSQtMW0sFHd8FeN-20" target="CLl4tcSQtMW0sFHd8FeN-22">
          <mxGeometry relative="1" as="geometry" />
        </mxCell>
        <mxCell id="CLl4tcSQtMW0sFHd8FeN-20" value="SQS&lt;br&gt;Data-lake-queue" style="sketch=0;outlineConnect=0;fontColor=#232F3E;gradientColor=none;strokeColor=#ffffff;fillColor=#232F3E;dashed=0;verticalLabelPosition=middle;verticalAlign=bottom;align=center;html=1;whiteSpace=wrap;fontSize=10;fontStyle=1;spacing=3;shape=mxgraph.aws4.productIcon;prIcon=mxgraph.aws4.sqs;" vertex="1" parent="1">
          <mxGeometry x="240" y="-190" width="80" height="125" as="geometry" />
        </mxCell>
        <mxCell id="CLl4tcSQtMW0sFHd8FeN-22" value="Job-Integration" style="sketch=0;outlineConnect=0;fontColor=#232F3E;gradientColor=none;strokeColor=#ffffff;fillColor=#232F3E;dashed=0;verticalLabelPosition=middle;verticalAlign=bottom;align=center;html=1;whiteSpace=wrap;fontSize=10;fontStyle=1;spacing=3;shape=mxgraph.aws4.productIcon;prIcon=mxgraph.aws4.lambda;" vertex="1" parent="1">
          <mxGeometry x="80" y="-177.5" width="80" height="100" as="geometry" />
        </mxCell>
      </root>
    </mxGraphModel>
  </diagram>
</mxfile>
